<?xml version="1.0" encoding="UTF-8"?><!DOCTYPE svg PUBLIC "-//W3C//DTD SVG 1.1//EN" "http://www.w3.org/Graphics/SVG/1.1/DTD/svg11.dtd"><svg xmlns="http://www.w3.org/2000/svg" style="shape-rendering:geometricPrecision; image-rendering:optimizeQuality; fill-rule:evenodd; clip-rule:evenodd" viewBox="0 0 1700 1350"><defs><style type="text/css"><![CDATA[ .fil0 {fill:#FFFFFF} .fil1 {fill:#FFD600} ]]></style></defs><path class="fil0" d="M1325 171c3,3 6,6 9,8 -8,7 -13,17 -15,28 -3,23 14,45 37,48 17,2 33,-6 42,-19 26,14 55,17 90,18 16,0 28,16 13,35 -76,82 -165,104 -260,81 -86,-20 -125,-76 -122,-140 2,-54 48,-98 108,-97 38,1 77,18 98,38zm-794 406c43,0 79,28 91,67l70 0c9,0 18,3 25,9l208 150c17,13 21,37 8,55 -12,17 -37,21 -54,8l-199 -144 -68 0c-16,27 -46,45 -81,45 -52,0 -95,-42 -95,-95 0,-52 43,-95 95,-95zm-159 -244c38,0 71,23 86,55l163 0c10,0 18,3 25,8l424 307c17,12 21,37 8,54 -12,17 -37,21 -54,9l-415 -301 -149 0c-14,34 -48,58 -88,58 -52,0 -95,-42 -95,-95 0,-52 43,-95 95,-95zm-73 -276c38,0 72,23 87,56l145 0c10,0 18,3 25,9l524 379c17,12 21,37 8,54 -12,17 -37,21 -54,9l-515 -373 -133 0c-15,33 -49,56 -87,56 -53,0 -95,-43 -95,-95 0,-52 42,-95 95,-95zm132 1116l0 0 0 0c-9,5 -19,10 -28,15 -109,61 -166,98 -248,165l-155 -112c106,-52 226,-101 340,-142 -116,-110 -196,-260 -217,-430 -18,-146 10,-287 72,-409 -13,59 -16,121 -8,184 41,313 344,536 677,498 149,-18 279,-85 373,-181 50,-61 93,-131 106,-210 10,-62 -47,-90 -100,-100 -121,-24 -226,-80 -225,-224 0,-143 151,-222 278,-224 106,-3 255,54 283,169l121 48 -129 43c0,2 -1,4 -2,6 -2,4 -4,9 -7,13 -6,12 -14,24 -23,35 -28,39 -16,60 -7,101 5,22 9,45 12,68 -85,-2 -102,66 -111,99 -60,214 -208,401 -696,486 -119,21 -216,53 -306,102z"/><path class="fil1" d="M1550 554c15,368 -256,691 -628,737 -149,18 -292,-10 -415,-74 77,-36 157,-59 242,-73 186,-33 392,-91 542,-210 110,-88 176,-196 213,-330 7,-25 12,-51 46,-58l0 8z"/></svg>